<mxfile host="Electron" modified="2024-11-30T20:04:55.638Z" agent="Mozilla/5.0 (Windows NT 10.0; Win64; x64) AppleWebKit/537.36 (KHTML, like Gecko) draw.io/23.0.2 Chrome/120.0.6099.109 Electron/28.1.0 Safari/537.36" etag="Kph3OE1O28tNvRifwQPX" version="23.0.2" type="device">
  <diagram name="Page-1" id="lZiyIU9wpoT2Q6qtcVW_">
    <mxGraphModel dx="3218" dy="2090" grid="1" gridSize="10" guides="1" tooltips="1" connect="1" arrows="1" fold="1" page="1" pageScale="1" pageWidth="1169" pageHeight="827" math="0" shadow="0">
      <root>
        <mxCell id="0" />
        <mxCell id="1" parent="0" />
        <mxCell id="aiXeEyE47r00dbF35qJt-1" value="Employer" style="shape=umlActor;verticalLabelPosition=bottom;verticalAlign=top;html=1;outlineConnect=0;" vertex="1" parent="1">
          <mxGeometry x="80" y="480" width="30" height="60" as="geometry" />
        </mxCell>
        <mxCell id="aiXeEyE47r00dbF35qJt-2" value="SignUp Employer" style="shape=umlActor;verticalLabelPosition=bottom;verticalAlign=top;html=1;outlineConnect=0;" vertex="1" parent="1">
          <mxGeometry y="310" width="30" height="60" as="geometry" />
        </mxCell>
        <mxCell id="aiXeEyE47r00dbF35qJt-3" value="New Employer" style="shape=umlActor;verticalLabelPosition=bottom;verticalAlign=top;html=1;outlineConnect=0;" vertex="1" parent="1">
          <mxGeometry x="80" y="354" width="30" height="60" as="geometry" />
        </mxCell>
        <mxCell id="aiXeEyE47r00dbF35qJt-5" value="" style="endArrow=none;html=1;rounded=0;entryX=1;entryY=1;entryDx=0;entryDy=0;entryPerimeter=0;exitX=0.5;exitY=0;exitDx=0;exitDy=0;exitPerimeter=0;" edge="1" parent="1" source="aiXeEyE47r00dbF35qJt-1" target="aiXeEyE47r00dbF35qJt-3">
          <mxGeometry width="50" height="50" relative="1" as="geometry">
            <mxPoint x="550" y="440" as="sourcePoint" />
            <mxPoint x="600" y="390" as="targetPoint" />
          </mxGeometry>
        </mxCell>
        <mxCell id="aiXeEyE47r00dbF35qJt-6" value="" style="endArrow=none;html=1;rounded=0;entryX=1;entryY=1;entryDx=0;entryDy=0;entryPerimeter=0;exitX=0.5;exitY=0;exitDx=0;exitDy=0;exitPerimeter=0;" edge="1" parent="1" source="aiXeEyE47r00dbF35qJt-1" target="aiXeEyE47r00dbF35qJt-2">
          <mxGeometry width="50" height="50" relative="1" as="geometry">
            <mxPoint x="105" y="490" as="sourcePoint" />
            <mxPoint x="170" y="330" as="targetPoint" />
            <Array as="points">
              <mxPoint x="25" y="420" />
            </Array>
          </mxGeometry>
        </mxCell>
        <mxCell id="aiXeEyE47r00dbF35qJt-10" value="Browse in landing view" style="ellipse;whiteSpace=wrap;html=1;fillColor=none;" vertex="1" parent="1">
          <mxGeometry x="380" y="400" width="120" height="60" as="geometry" />
        </mxCell>
        <mxCell id="aiXeEyE47r00dbF35qJt-11" value="SignIn" style="ellipse;whiteSpace=wrap;html=1;fillColor=none;" vertex="1" parent="1">
          <mxGeometry x="300" y="10" width="120" height="50" as="geometry" />
        </mxCell>
        <mxCell id="aiXeEyE47r00dbF35qJt-12" value="SignUp" style="ellipse;whiteSpace=wrap;html=1;fillColor=none;" vertex="1" parent="1">
          <mxGeometry x="290" y="-120" width="120" height="50" as="geometry" />
        </mxCell>
        <mxCell id="aiXeEyE47r00dbF35qJt-16" value="View Workers, Jobs &lt;br&gt;&amp;amp; Contracts" style="ellipse;whiteSpace=wrap;html=1;fillColor=none;" vertex="1" parent="1">
          <mxGeometry x="460" y="480" width="160" height="60" as="geometry" />
        </mxCell>
        <mxCell id="aiXeEyE47r00dbF35qJt-17" value="Employee" style="shape=umlActor;verticalLabelPosition=bottom;verticalAlign=top;html=1;outlineConnect=0;" vertex="1" parent="1">
          <mxGeometry x="-70" y="240" width="30" height="60" as="geometry" />
        </mxCell>
        <mxCell id="aiXeEyE47r00dbF35qJt-18" value="SignUp Employee" style="shape=umlActor;verticalLabelPosition=bottom;verticalAlign=top;html=1;outlineConnect=0;" vertex="1" parent="1">
          <mxGeometry x="-110" width="30" height="60" as="geometry" />
        </mxCell>
        <mxCell id="aiXeEyE47r00dbF35qJt-19" value="New Employee" style="shape=umlActor;verticalLabelPosition=bottom;verticalAlign=top;html=1;outlineConnect=0;" vertex="1" parent="1">
          <mxGeometry x="-70" y="114" width="30" height="60" as="geometry" />
        </mxCell>
        <mxCell id="aiXeEyE47r00dbF35qJt-20" value="" style="endArrow=none;html=1;rounded=0;entryX=1;entryY=1;entryDx=0;entryDy=0;entryPerimeter=0;exitX=0.5;exitY=0;exitDx=0;exitDy=0;exitPerimeter=0;" edge="1" parent="1" source="aiXeEyE47r00dbF35qJt-17" target="aiXeEyE47r00dbF35qJt-19">
          <mxGeometry width="50" height="50" relative="1" as="geometry">
            <mxPoint x="400" y="200" as="sourcePoint" />
            <mxPoint x="450" y="150" as="targetPoint" />
          </mxGeometry>
        </mxCell>
        <mxCell id="aiXeEyE47r00dbF35qJt-21" value="" style="endArrow=none;html=1;rounded=0;entryX=1;entryY=1;entryDx=0;entryDy=0;entryPerimeter=0;exitX=0.5;exitY=0;exitDx=0;exitDy=0;exitPerimeter=0;" edge="1" parent="1" source="aiXeEyE47r00dbF35qJt-17" target="aiXeEyE47r00dbF35qJt-18">
          <mxGeometry width="50" height="50" relative="1" as="geometry">
            <mxPoint x="-45" y="250" as="sourcePoint" />
            <mxPoint x="20" y="90" as="targetPoint" />
            <Array as="points">
              <mxPoint x="-110" y="160" />
            </Array>
          </mxGeometry>
        </mxCell>
        <mxCell id="aiXeEyE47r00dbF35qJt-23" value="" style="endArrow=none;html=1;rounded=0;exitX=1;exitY=0.3333333333333333;exitDx=0;exitDy=0;exitPerimeter=0;entryX=0;entryY=0.5;entryDx=0;entryDy=0;" edge="1" parent="1" source="aiXeEyE47r00dbF35qJt-17" target="aiXeEyE47r00dbF35qJt-10">
          <mxGeometry width="50" height="50" relative="1" as="geometry">
            <mxPoint x="-37" y="130" as="sourcePoint" />
            <mxPoint x="300" y="160" as="targetPoint" />
          </mxGeometry>
        </mxCell>
        <mxCell id="aiXeEyE47r00dbF35qJt-24" value="Email or PhoneNo Verification" style="ellipse;whiteSpace=wrap;html=1;fillColor=none;" vertex="1" parent="1">
          <mxGeometry x="420" y="-240" width="150" height="50" as="geometry" />
        </mxCell>
        <mxCell id="aiXeEyE47r00dbF35qJt-29" value="" style="endArrow=none;html=1;rounded=0;exitX=0.75;exitY=0.1;exitDx=0;exitDy=0;exitPerimeter=0;entryX=0;entryY=0.5;entryDx=0;entryDy=0;" edge="1" parent="1" source="aiXeEyE47r00dbF35qJt-19" target="aiXeEyE47r00dbF35qJt-12">
          <mxGeometry width="50" height="50" relative="1" as="geometry">
            <mxPoint x="-77" y="16" as="sourcePoint" />
            <mxPoint x="300" y="160" as="targetPoint" />
          </mxGeometry>
        </mxCell>
        <mxCell id="aiXeEyE47r00dbF35qJt-30" value="" style="endArrow=none;html=1;rounded=0;exitX=0.5;exitY=0;exitDx=0;exitDy=0;exitPerimeter=0;entryX=0;entryY=0.5;entryDx=0;entryDy=0;" edge="1" parent="1" source="aiXeEyE47r00dbF35qJt-3" target="aiXeEyE47r00dbF35qJt-12">
          <mxGeometry width="50" height="50" relative="1" as="geometry">
            <mxPoint x="73" y="256" as="sourcePoint" />
            <mxPoint x="300" y="160" as="targetPoint" />
          </mxGeometry>
        </mxCell>
        <mxCell id="aiXeEyE47r00dbF35qJt-31" value="Hire Worker &amp;amp; Post a Job" style="ellipse;whiteSpace=wrap;html=1;fillColor=none;" vertex="1" parent="1">
          <mxGeometry x="220" y="140" width="160" height="60" as="geometry" />
        </mxCell>
        <mxCell id="aiXeEyE47r00dbF35qJt-33" value="" style="endArrow=none;html=1;rounded=0;exitX=1;exitY=0.3333333333333333;exitDx=0;exitDy=0;exitPerimeter=0;entryX=0;entryY=0.5;entryDx=0;entryDy=0;" edge="1" parent="1" source="aiXeEyE47r00dbF35qJt-1" target="aiXeEyE47r00dbF35qJt-10">
          <mxGeometry width="50" height="50" relative="1" as="geometry">
            <mxPoint x="-30" y="270" as="sourcePoint" />
            <mxPoint x="300" y="160" as="targetPoint" />
          </mxGeometry>
        </mxCell>
        <mxCell id="aiXeEyE47r00dbF35qJt-34" value="" style="endArrow=none;html=1;rounded=0;entryX=0;entryY=0.5;entryDx=0;entryDy=0;" edge="1" parent="1" target="aiXeEyE47r00dbF35qJt-16">
          <mxGeometry width="50" height="50" relative="1" as="geometry">
            <mxPoint x="110" y="500" as="sourcePoint" />
            <mxPoint x="300" y="160" as="targetPoint" />
          </mxGeometry>
        </mxCell>
        <mxCell id="aiXeEyE47r00dbF35qJt-35" value="" style="endArrow=none;html=1;rounded=0;entryX=0;entryY=0.5;entryDx=0;entryDy=0;exitX=1;exitY=0.3333333333333333;exitDx=0;exitDy=0;exitPerimeter=0;" edge="1" parent="1" source="aiXeEyE47r00dbF35qJt-17" target="aiXeEyE47r00dbF35qJt-16">
          <mxGeometry width="50" height="50" relative="1" as="geometry">
            <mxPoint x="120" y="510" as="sourcePoint" />
            <mxPoint x="280" y="260" as="targetPoint" />
          </mxGeometry>
        </mxCell>
        <mxCell id="aiXeEyE47r00dbF35qJt-36" value="" style="endArrow=none;html=1;rounded=0;exitX=0.5;exitY=0;exitDx=0;exitDy=0;exitPerimeter=0;entryX=0;entryY=0.5;entryDx=0;entryDy=0;" edge="1" parent="1" source="aiXeEyE47r00dbF35qJt-2" target="aiXeEyE47r00dbF35qJt-31">
          <mxGeometry width="50" height="50" relative="1" as="geometry">
            <mxPoint x="105" y="364" as="sourcePoint" />
            <mxPoint x="300" y="-85" as="targetPoint" />
          </mxGeometry>
        </mxCell>
        <mxCell id="aiXeEyE47r00dbF35qJt-37" value="&lt;font style=&quot;font-size: 12px;&quot;&gt;&amp;lt;include&amp;gt;&lt;/font&gt;" style="endArrow=open;startArrow=none;endFill=0;startFill=0;endSize=8;html=1;verticalAlign=bottom;dashed=1;labelBackgroundColor=none;rounded=0;entryX=0.5;entryY=1;entryDx=0;entryDy=0;exitX=0.5;exitY=0;exitDx=0;exitDy=0;" edge="1" parent="1" source="aiXeEyE47r00dbF35qJt-31" target="aiXeEyE47r00dbF35qJt-11">
          <mxGeometry width="160" relative="1" as="geometry">
            <mxPoint x="340" y="210" as="sourcePoint" />
            <mxPoint x="500" y="210" as="targetPoint" />
          </mxGeometry>
        </mxCell>
        <mxCell id="aiXeEyE47r00dbF35qJt-39" value="&lt;font style=&quot;font-size: 12px;&quot;&gt;&amp;lt;extend&amp;gt;&lt;/font&gt;" style="endArrow=open;startArrow=none;endFill=0;startFill=0;endSize=8;html=1;verticalAlign=bottom;dashed=1;labelBackgroundColor=none;rounded=0;entryX=0.5;entryY=0;entryDx=0;entryDy=0;exitX=0.5;exitY=1;exitDx=0;exitDy=0;" edge="1" parent="1" source="aiXeEyE47r00dbF35qJt-12" target="aiXeEyE47r00dbF35qJt-11">
          <mxGeometry width="160" relative="1" as="geometry">
            <mxPoint x="432" y="-113" as="sourcePoint" />
            <mxPoint x="525" y="-170" as="targetPoint" />
          </mxGeometry>
        </mxCell>
        <mxCell id="aiXeEyE47r00dbF35qJt-40" value="" style="endArrow=none;html=1;rounded=0;exitX=0.5;exitY=0;exitDx=0;exitDy=0;exitPerimeter=0;entryX=0;entryY=0.5;entryDx=0;entryDy=0;" edge="1" parent="1" source="aiXeEyE47r00dbF35qJt-2" target="aiXeEyE47r00dbF35qJt-11">
          <mxGeometry width="50" height="50" relative="1" as="geometry">
            <mxPoint x="35" y="300" as="sourcePoint" />
            <mxPoint x="310" y="180" as="targetPoint" />
          </mxGeometry>
        </mxCell>
        <mxCell id="aiXeEyE47r00dbF35qJt-41" value="" style="endArrow=none;html=1;rounded=0;exitX=0.75;exitY=0.1;exitDx=0;exitDy=0;exitPerimeter=0;entryX=0;entryY=0.5;entryDx=0;entryDy=0;" edge="1" parent="1" source="aiXeEyE47r00dbF35qJt-18" target="aiXeEyE47r00dbF35qJt-11">
          <mxGeometry width="50" height="50" relative="1" as="geometry">
            <mxPoint x="35" y="300" as="sourcePoint" />
            <mxPoint x="310" y="45" as="targetPoint" />
          </mxGeometry>
        </mxCell>
        <mxCell id="aiXeEyE47r00dbF35qJt-43" value="&lt;font style=&quot;font-size: 12px;&quot;&gt;&amp;lt;include&amp;gt;&lt;/font&gt;" style="endArrow=open;startArrow=none;endFill=0;startFill=0;endSize=8;html=1;verticalAlign=bottom;dashed=1;labelBackgroundColor=none;rounded=0;entryX=0;entryY=1;entryDx=0;entryDy=0;exitX=0.5;exitY=0;exitDx=0;exitDy=0;" edge="1" parent="1" source="aiXeEyE47r00dbF35qJt-12" target="aiXeEyE47r00dbF35qJt-24">
          <mxGeometry width="160" relative="1" as="geometry">
            <mxPoint x="390" y="150" as="sourcePoint" />
            <mxPoint x="370" y="70" as="targetPoint" />
          </mxGeometry>
        </mxCell>
        <mxCell id="aiXeEyE47r00dbF35qJt-44" value="Forget Password" style="ellipse;whiteSpace=wrap;html=1;fillColor=none;" vertex="1" parent="1">
          <mxGeometry x="460" y="-80" width="120" height="50" as="geometry" />
        </mxCell>
        <mxCell id="aiXeEyE47r00dbF35qJt-45" value="&lt;font style=&quot;font-size: 12px;&quot;&gt;&amp;lt;extend&amp;gt;&lt;/font&gt;" style="endArrow=open;startArrow=none;endFill=0;startFill=0;endSize=8;html=1;verticalAlign=bottom;dashed=1;labelBackgroundColor=none;rounded=0;entryX=1;entryY=0;entryDx=0;entryDy=0;exitX=0;exitY=0.5;exitDx=0;exitDy=0;" edge="1" parent="1" source="aiXeEyE47r00dbF35qJt-44" target="aiXeEyE47r00dbF35qJt-11">
          <mxGeometry width="160" relative="1" as="geometry">
            <mxPoint x="360" y="-60" as="sourcePoint" />
            <mxPoint x="370" y="20" as="targetPoint" />
          </mxGeometry>
        </mxCell>
        <mxCell id="aiXeEyE47r00dbF35qJt-46" value="Verify using email&lt;br&gt;or phoneNo" style="ellipse;whiteSpace=wrap;html=1;fillColor=none;" vertex="1" parent="1">
          <mxGeometry x="600" y="-310" width="120" height="60" as="geometry" />
        </mxCell>
        <mxCell id="aiXeEyE47r00dbF35qJt-47" value="&lt;font style=&quot;font-size: 12px;&quot;&gt;&amp;lt;include&amp;gt;&lt;/font&gt;" style="endArrow=open;startArrow=none;endFill=0;startFill=0;endSize=8;html=1;verticalAlign=bottom;dashed=1;labelBackgroundColor=none;rounded=0;entryX=0.5;entryY=1;entryDx=0;entryDy=0;exitX=1;exitY=0;exitDx=0;exitDy=0;" edge="1" parent="1" source="aiXeEyE47r00dbF35qJt-44" target="aiXeEyE47r00dbF35qJt-46">
          <mxGeometry width="160" relative="1" as="geometry">
            <mxPoint x="360" y="-110" as="sourcePoint" />
            <mxPoint x="452" y="-187" as="targetPoint" />
          </mxGeometry>
        </mxCell>
        <mxCell id="aiXeEyE47r00dbF35qJt-48" value="Apply for a Job &amp;amp; Post Skills" style="ellipse;whiteSpace=wrap;html=1;fillColor=none;" vertex="1" parent="1">
          <mxGeometry x="480" y="115" width="170" height="60" as="geometry" />
        </mxCell>
        <mxCell id="aiXeEyE47r00dbF35qJt-49" value="" style="endArrow=none;html=1;rounded=0;exitX=0.75;exitY=0.1;exitDx=0;exitDy=0;exitPerimeter=0;entryX=0;entryY=0;entryDx=0;entryDy=0;" edge="1" parent="1" source="aiXeEyE47r00dbF35qJt-18" target="aiXeEyE47r00dbF35qJt-48">
          <mxGeometry width="50" height="50" relative="1" as="geometry">
            <mxPoint x="-27" y="225" as="sourcePoint" />
            <mxPoint x="310" y="10" as="targetPoint" />
          </mxGeometry>
        </mxCell>
        <mxCell id="aiXeEyE47r00dbF35qJt-50" value="&lt;font style=&quot;font-size: 12px;&quot;&gt;&amp;lt;include&amp;gt;&lt;/font&gt;" style="endArrow=open;startArrow=none;endFill=0;startFill=0;endSize=8;html=1;verticalAlign=bottom;dashed=1;labelBackgroundColor=none;rounded=0;entryX=1;entryY=1;entryDx=0;entryDy=0;exitX=0.5;exitY=0;exitDx=0;exitDy=0;" edge="1" parent="1" source="aiXeEyE47r00dbF35qJt-48" target="aiXeEyE47r00dbF35qJt-11">
          <mxGeometry width="160" relative="1" as="geometry">
            <mxPoint x="360" y="140" as="sourcePoint" />
            <mxPoint x="370" y="70" as="targetPoint" />
          </mxGeometry>
        </mxCell>
        <mxCell id="aiXeEyE47r00dbF35qJt-51" value="View User Account" style="ellipse;whiteSpace=wrap;html=1;fillColor=none;" vertex="1" parent="1">
          <mxGeometry x="110" y="-160" width="120" height="50" as="geometry" />
        </mxCell>
        <mxCell id="aiXeEyE47r00dbF35qJt-52" value="" style="endArrow=none;html=1;rounded=0;exitX=0.5;exitY=0;exitDx=0;exitDy=0;exitPerimeter=0;entryX=0;entryY=0.5;entryDx=0;entryDy=0;" edge="1" parent="1" source="aiXeEyE47r00dbF35qJt-18" target="aiXeEyE47r00dbF35qJt-51">
          <mxGeometry width="50" height="50" relative="1" as="geometry">
            <mxPoint x="-77" y="16" as="sourcePoint" />
            <mxPoint x="495" y="149" as="targetPoint" />
          </mxGeometry>
        </mxCell>
        <mxCell id="aiXeEyE47r00dbF35qJt-53" value="" style="endArrow=none;html=1;rounded=0;exitX=0.25;exitY=0.1;exitDx=0;exitDy=0;exitPerimeter=0;entryX=0;entryY=0.5;entryDx=0;entryDy=0;" edge="1" parent="1" source="aiXeEyE47r00dbF35qJt-2" target="aiXeEyE47r00dbF35qJt-51">
          <mxGeometry width="50" height="50" relative="1" as="geometry">
            <mxPoint x="-85" y="10" as="sourcePoint" />
            <mxPoint x="120" y="-125" as="targetPoint" />
          </mxGeometry>
        </mxCell>
        <mxCell id="aiXeEyE47r00dbF35qJt-54" value="&lt;font style=&quot;font-size: 12px;&quot;&gt;&amp;lt;include&amp;gt;&lt;/font&gt;" style="endArrow=open;startArrow=none;endFill=0;startFill=0;endSize=8;html=1;verticalAlign=bottom;dashed=1;labelBackgroundColor=none;rounded=0;entryX=0;entryY=0;entryDx=0;entryDy=0;exitX=0.5;exitY=1;exitDx=0;exitDy=0;" edge="1" parent="1" source="aiXeEyE47r00dbF35qJt-51" target="aiXeEyE47r00dbF35qJt-11">
          <mxGeometry width="160" relative="1" as="geometry">
            <mxPoint x="360" y="140" as="sourcePoint" />
            <mxPoint x="370" y="70" as="targetPoint" />
          </mxGeometry>
        </mxCell>
        <mxCell id="aiXeEyE47r00dbF35qJt-55" value="Edit settings" style="ellipse;whiteSpace=wrap;html=1;fillColor=none;" vertex="1" parent="1">
          <mxGeometry x="10" y="-260" width="120" height="50" as="geometry" />
        </mxCell>
        <mxCell id="aiXeEyE47r00dbF35qJt-56" value="&lt;font style=&quot;font-size: 12px;&quot;&gt;&amp;lt;extend&amp;gt;&lt;/font&gt;" style="endArrow=open;startArrow=none;endFill=0;startFill=0;endSize=8;html=1;verticalAlign=bottom;dashed=1;labelBackgroundColor=none;rounded=0;entryX=0;entryY=0;entryDx=0;entryDy=0;exitX=0.5;exitY=1;exitDx=0;exitDy=0;" edge="1" parent="1" source="aiXeEyE47r00dbF35qJt-55" target="aiXeEyE47r00dbF35qJt-51">
          <mxGeometry width="160" relative="1" as="geometry">
            <mxPoint x="470" y="-45" as="sourcePoint" />
            <mxPoint x="412" y="27" as="targetPoint" />
          </mxGeometry>
        </mxCell>
        <mxCell id="aiXeEyE47r00dbF35qJt-57" value="Delete Account" style="ellipse;whiteSpace=wrap;html=1;fillColor=none;" vertex="1" parent="1">
          <mxGeometry x="110" y="-310" width="120" height="50" as="geometry" />
        </mxCell>
        <mxCell id="aiXeEyE47r00dbF35qJt-58" value="&lt;font style=&quot;font-size: 12px;&quot;&gt;&amp;lt;extend&amp;gt;&lt;/font&gt;" style="endArrow=open;startArrow=none;endFill=0;startFill=0;endSize=8;html=1;verticalAlign=bottom;dashed=1;labelBackgroundColor=none;rounded=0;entryX=0.5;entryY=0;entryDx=0;entryDy=0;exitX=0.5;exitY=1;exitDx=0;exitDy=0;" edge="1" parent="1" source="aiXeEyE47r00dbF35qJt-57" target="aiXeEyE47r00dbF35qJt-51">
          <mxGeometry width="160" relative="1" as="geometry">
            <mxPoint x="80" y="-200" as="sourcePoint" />
            <mxPoint x="138" y="-143" as="targetPoint" />
          </mxGeometry>
        </mxCell>
        <mxCell id="aiXeEyE47r00dbF35qJt-61" value="&lt;font style=&quot;font-size: 12px;&quot;&gt;&amp;lt;include&amp;gt;&lt;/font&gt;" style="endArrow=open;startArrow=none;endFill=0;startFill=0;endSize=8;html=1;verticalAlign=bottom;dashed=1;labelBackgroundColor=none;rounded=0;entryX=0;entryY=0.5;entryDx=0;entryDy=0;exitX=1;exitY=0.5;exitDx=0;exitDy=0;" edge="1" parent="1" source="aiXeEyE47r00dbF35qJt-57" target="aiXeEyE47r00dbF35qJt-46">
          <mxGeometry width="160" relative="1" as="geometry">
            <mxPoint x="572" y="-63" as="sourcePoint" />
            <mxPoint x="670" y="-240" as="targetPoint" />
          </mxGeometry>
        </mxCell>
        <mxCell id="aiXeEyE47r00dbF35qJt-62" value="SignOut" style="ellipse;whiteSpace=wrap;html=1;fillColor=none;" vertex="1" parent="1">
          <mxGeometry x="260" y="230" width="120" height="50" as="geometry" />
        </mxCell>
        <mxCell id="aiXeEyE47r00dbF35qJt-63" value="" style="endArrow=none;html=1;rounded=0;exitX=0.75;exitY=0.1;exitDx=0;exitDy=0;exitPerimeter=0;entryX=0;entryY=0.5;entryDx=0;entryDy=0;" edge="1" parent="1" source="aiXeEyE47r00dbF35qJt-2" target="aiXeEyE47r00dbF35qJt-62">
          <mxGeometry width="50" height="50" relative="1" as="geometry">
            <mxPoint x="35" y="300" as="sourcePoint" />
            <mxPoint x="280" y="170" as="targetPoint" />
          </mxGeometry>
        </mxCell>
        <mxCell id="aiXeEyE47r00dbF35qJt-64" value="" style="endArrow=none;html=1;rounded=0;exitX=0.75;exitY=0.1;exitDx=0;exitDy=0;exitPerimeter=0;entryX=0;entryY=0.5;entryDx=0;entryDy=0;" edge="1" parent="1" source="aiXeEyE47r00dbF35qJt-18" target="aiXeEyE47r00dbF35qJt-62">
          <mxGeometry width="50" height="50" relative="1" as="geometry">
            <mxPoint x="43" y="306" as="sourcePoint" />
            <mxPoint x="475" y="245" as="targetPoint" />
            <Array as="points">
              <mxPoint x="70" y="180" />
            </Array>
          </mxGeometry>
        </mxCell>
        <mxCell id="aiXeEyE47r00dbF35qJt-65" value="Admin" style="shape=umlActor;verticalLabelPosition=bottom;verticalAlign=top;html=1;outlineConnect=0;" vertex="1" parent="1">
          <mxGeometry x="1040" y="170" width="30" height="60" as="geometry" />
        </mxCell>
        <mxCell id="aiXeEyE47r00dbF35qJt-66" value="Review Skill posts" style="ellipse;whiteSpace=wrap;html=1;fillColor=none;" vertex="1" parent="1">
          <mxGeometry x="670" y="175" width="120" height="50" as="geometry" />
        </mxCell>
        <mxCell id="aiXeEyE47r00dbF35qJt-67" value="" style="endArrow=none;html=1;rounded=0;entryX=1;entryY=0.5;entryDx=0;entryDy=0;exitX=0;exitY=0.3333333333333333;exitDx=0;exitDy=0;exitPerimeter=0;" edge="1" parent="1" source="aiXeEyE47r00dbF35qJt-65" target="aiXeEyE47r00dbF35qJt-66">
          <mxGeometry width="50" height="50" relative="1" as="geometry">
            <mxPoint x="-50" y="520" as="sourcePoint" />
            <mxPoint x="150" y="409" as="targetPoint" />
          </mxGeometry>
        </mxCell>
        <mxCell id="aiXeEyE47r00dbF35qJt-68" value="Review Job Posts" style="ellipse;whiteSpace=wrap;html=1;fillColor=none;" vertex="1" parent="1">
          <mxGeometry x="670" y="90" width="120" height="50" as="geometry" />
        </mxCell>
        <mxCell id="aiXeEyE47r00dbF35qJt-69" value="" style="endArrow=none;html=1;rounded=0;entryX=1;entryY=0.5;entryDx=0;entryDy=0;exitX=0;exitY=0.3333333333333333;exitDx=0;exitDy=0;exitPerimeter=0;" edge="1" parent="1" source="aiXeEyE47r00dbF35qJt-65" target="aiXeEyE47r00dbF35qJt-68">
          <mxGeometry width="50" height="50" relative="1" as="geometry">
            <mxPoint x="1040" y="190" as="sourcePoint" />
            <mxPoint x="800" y="210" as="targetPoint" />
          </mxGeometry>
        </mxCell>
        <mxCell id="aiXeEyE47r00dbF35qJt-70" value="Review workers hireing process" style="ellipse;whiteSpace=wrap;html=1;fillColor=none;" vertex="1" parent="1">
          <mxGeometry x="570" y="10" width="120" height="50" as="geometry" />
        </mxCell>
        <mxCell id="aiXeEyE47r00dbF35qJt-71" value="" style="endArrow=none;html=1;rounded=0;entryX=1;entryY=0.5;entryDx=0;entryDy=0;exitX=0.25;exitY=0.1;exitDx=0;exitDy=0;exitPerimeter=0;" edge="1" parent="1" source="aiXeEyE47r00dbF35qJt-65" target="aiXeEyE47r00dbF35qJt-70">
          <mxGeometry width="50" height="50" relative="1" as="geometry">
            <mxPoint x="1050" y="200" as="sourcePoint" />
            <mxPoint x="800" y="125" as="targetPoint" />
          </mxGeometry>
        </mxCell>
        <mxCell id="aiXeEyE47r00dbF35qJt-73" value="Post Contracts" style="ellipse;whiteSpace=wrap;html=1;fillColor=none;" vertex="1" parent="1">
          <mxGeometry x="410" y="310" width="120" height="50" as="geometry" />
        </mxCell>
        <mxCell id="aiXeEyE47r00dbF35qJt-74" value="" style="endArrow=none;html=1;rounded=0;exitX=1;exitY=0.3333333333333333;exitDx=0;exitDy=0;exitPerimeter=0;entryX=0;entryY=0.5;entryDx=0;entryDy=0;" edge="1" parent="1" source="aiXeEyE47r00dbF35qJt-2" target="aiXeEyE47r00dbF35qJt-73">
          <mxGeometry width="50" height="50" relative="1" as="geometry">
            <mxPoint x="120" y="510" as="sourcePoint" />
            <mxPoint x="390" y="440" as="targetPoint" />
          </mxGeometry>
        </mxCell>
        <mxCell id="aiXeEyE47r00dbF35qJt-75" value="&lt;font style=&quot;font-size: 12px;&quot;&gt;&amp;lt;include&amp;gt;&lt;/font&gt;" style="endArrow=open;startArrow=none;endFill=0;startFill=0;endSize=8;html=1;verticalAlign=bottom;dashed=1;labelBackgroundColor=none;rounded=0;entryX=0.5;entryY=1;entryDx=0;entryDy=0;exitX=0.5;exitY=0;exitDx=0;exitDy=0;" edge="1" parent="1" source="aiXeEyE47r00dbF35qJt-73" target="aiXeEyE47r00dbF35qJt-11">
          <mxGeometry width="160" relative="1" as="geometry">
            <mxPoint x="310" y="150" as="sourcePoint" />
            <mxPoint x="370" y="70" as="targetPoint" />
          </mxGeometry>
        </mxCell>
        <mxCell id="aiXeEyE47r00dbF35qJt-76" value="Contractors" style="shape=umlActor;verticalLabelPosition=bottom;verticalAlign=top;html=1;outlineConnect=0;" vertex="1" parent="1">
          <mxGeometry x="1020" y="440" width="30" height="60" as="geometry" />
        </mxCell>
        <mxCell id="aiXeEyE47r00dbF35qJt-77" value="" style="endArrow=none;html=1;rounded=0;entryX=1;entryY=0;entryDx=0;entryDy=0;exitX=0.5;exitY=0;exitDx=0;exitDy=0;exitPerimeter=0;" edge="1" parent="1" source="aiXeEyE47r00dbF35qJt-76" target="aiXeEyE47r00dbF35qJt-12">
          <mxGeometry width="50" height="50" relative="1" as="geometry">
            <mxPoint x="1050" y="200" as="sourcePoint" />
            <mxPoint x="800" y="210" as="targetPoint" />
            <Array as="points">
              <mxPoint x="1140" y="110" />
              <mxPoint x="780" y="-110" />
            </Array>
          </mxGeometry>
        </mxCell>
        <mxCell id="aiXeEyE47r00dbF35qJt-78" value="Registration of Contractors" style="ellipse;whiteSpace=wrap;html=1;fillColor=none;" vertex="1" parent="1">
          <mxGeometry x="720" y="480" width="120" height="50" as="geometry" />
        </mxCell>
        <mxCell id="aiXeEyE47r00dbF35qJt-79" value="" style="endArrow=none;html=1;rounded=0;entryX=1;entryY=0.5;entryDx=0;entryDy=0;exitX=0.25;exitY=0.1;exitDx=0;exitDy=0;exitPerimeter=0;" edge="1" parent="1" source="aiXeEyE47r00dbF35qJt-76" target="aiXeEyE47r00dbF35qJt-78">
          <mxGeometry width="50" height="50" relative="1" as="geometry">
            <mxPoint x="1050" y="200" as="sourcePoint" />
            <mxPoint x="800" y="210" as="targetPoint" />
          </mxGeometry>
        </mxCell>
        <mxCell id="aiXeEyE47r00dbF35qJt-80" value="Email or PhoneNo Verification" style="ellipse;whiteSpace=wrap;html=1;fillColor=none;" vertex="1" parent="1">
          <mxGeometry x="720" y="630" width="150" height="50" as="geometry" />
        </mxCell>
        <mxCell id="aiXeEyE47r00dbF35qJt-81" value="&lt;font style=&quot;font-size: 12px;&quot;&gt;&amp;lt;include&amp;gt;&lt;/font&gt;" style="endArrow=open;startArrow=none;endFill=0;startFill=0;endSize=8;html=1;verticalAlign=bottom;dashed=1;labelBackgroundColor=none;rounded=0;entryX=0.5;entryY=0;entryDx=0;entryDy=0;exitX=0.5;exitY=1;exitDx=0;exitDy=0;" edge="1" parent="1" source="aiXeEyE47r00dbF35qJt-78" target="aiXeEyE47r00dbF35qJt-80">
          <mxGeometry width="160" relative="1" as="geometry">
            <mxPoint x="700" y="630" as="sourcePoint" />
            <mxPoint x="792" y="553" as="targetPoint" />
          </mxGeometry>
        </mxCell>
        <mxCell id="aiXeEyE47r00dbF35qJt-83" value="Bid for Contract" style="ellipse;whiteSpace=wrap;html=1;fillColor=none;" vertex="1" parent="1">
          <mxGeometry x="570" y="380" width="120" height="50" as="geometry" />
        </mxCell>
        <mxCell id="aiXeEyE47r00dbF35qJt-84" value="" style="endArrow=none;html=1;rounded=0;entryX=1;entryY=0.5;entryDx=0;entryDy=0;exitX=0.5;exitY=0;exitDx=0;exitDy=0;exitPerimeter=0;" edge="1" parent="1" source="aiXeEyE47r00dbF35qJt-76" target="aiXeEyE47r00dbF35qJt-83">
          <mxGeometry width="50" height="50" relative="1" as="geometry">
            <mxPoint x="1050" y="200" as="sourcePoint" />
            <mxPoint x="800" y="210" as="targetPoint" />
          </mxGeometry>
        </mxCell>
        <mxCell id="aiXeEyE47r00dbF35qJt-86" value="&lt;font style=&quot;font-size: 12px;&quot;&gt;&amp;lt;include&amp;gt;&lt;/font&gt;" style="endArrow=open;startArrow=none;endFill=0;startFill=0;endSize=8;html=1;verticalAlign=bottom;dashed=1;labelBackgroundColor=none;rounded=0;entryX=0.5;entryY=1;entryDx=0;entryDy=0;exitX=0;exitY=0;exitDx=0;exitDy=0;" edge="1" parent="1" source="aiXeEyE47r00dbF35qJt-83" target="aiXeEyE47r00dbF35qJt-11">
          <mxGeometry width="160" relative="1" as="geometry">
            <mxPoint x="480" y="320" as="sourcePoint" />
            <mxPoint x="370" y="70" as="targetPoint" />
          </mxGeometry>
        </mxCell>
        <mxCell id="aiXeEyE47r00dbF35qJt-87" value="Review Contract Posts" style="ellipse;whiteSpace=wrap;html=1;fillColor=none;" vertex="1" parent="1">
          <mxGeometry x="680" y="250" width="120" height="50" as="geometry" />
        </mxCell>
        <mxCell id="aiXeEyE47r00dbF35qJt-88" value="" style="endArrow=none;html=1;rounded=0;entryX=1;entryY=0.5;entryDx=0;entryDy=0;exitX=0.5;exitY=0.5;exitDx=0;exitDy=0;exitPerimeter=0;" edge="1" parent="1" source="aiXeEyE47r00dbF35qJt-65" target="aiXeEyE47r00dbF35qJt-87">
          <mxGeometry width="50" height="50" relative="1" as="geometry">
            <mxPoint x="1050" y="200" as="sourcePoint" />
            <mxPoint x="800" y="210" as="targetPoint" />
          </mxGeometry>
        </mxCell>
        <mxCell id="aiXeEyE47r00dbF35qJt-89" value="Create Contract aggrements" style="ellipse;whiteSpace=wrap;html=1;fillColor=none;" vertex="1" parent="1">
          <mxGeometry x="760" y="320" width="120" height="50" as="geometry" />
        </mxCell>
        <mxCell id="aiXeEyE47r00dbF35qJt-90" value="" style="endArrow=none;html=1;rounded=0;entryX=1;entryY=0.5;entryDx=0;entryDy=0;exitX=0.5;exitY=0.5;exitDx=0;exitDy=0;exitPerimeter=0;" edge="1" parent="1" source="aiXeEyE47r00dbF35qJt-65" target="aiXeEyE47r00dbF35qJt-89">
          <mxGeometry width="50" height="50" relative="1" as="geometry">
            <mxPoint x="1065" y="210" as="sourcePoint" />
            <mxPoint x="810" y="285" as="targetPoint" />
          </mxGeometry>
        </mxCell>
      </root>
    </mxGraphModel>
  </diagram>
</mxfile>
